<svg preserveAspectRatio="none" width="100%" height="100%" overflow="visible" style="display: block;" viewBox="0 0 15.9982 15.9982" fill="none" xmlns="http://www.w3.org/2000/svg">
<g id="Icon" clip-path="url(#clip0_0_21)">
<path id="Vector" d="M4.66614 10.8654C6.13264 10.8654 7.33251 9.64558 7.33251 8.16575C7.33251 7.3925 6.95255 6.65925 6.19264 6.03932C5.43272 5.41939 4.85945 4.49949 4.66614 3.53294C4.47283 4.49949 3.90623 5.42606 3.13965 6.03932C2.37307 6.65259 1.99978 7.39917 1.99978 8.16575C1.99978 9.64558 3.19964 10.8654 4.66614 10.8654Z" stroke="var(--stroke-0, #8F6D51)" stroke-width="0.999887" stroke-linecap="round" stroke-linejoin="round"/>
<path id="Vector_2" d="M8.37239 4.39951C8.83085 3.667 9.15584 2.85904 9.33228 2.01311C9.66558 3.67959 10.6655 5.27941 11.9986 6.34595C13.3318 7.4125 13.9984 8.67902 13.9984 10.0122C14.0022 10.9336 13.7324 11.8354 13.223 12.6033C12.7137 13.3712 11.9879 13.9705 11.1375 14.3254C10.2871 14.6802 9.35056 14.7746 8.4465 14.5965C7.54244 14.4185 6.7116 13.976 6.05932 13.3252" stroke="var(--stroke-0, #8F6D51)" stroke-width="0.999887" stroke-linecap="round" stroke-linejoin="round"/>
</g>
<defs>
<clipPath id="clip0_0_21">
<rect width="15.9982" height="15.9982" fill="white"/>
</clipPath>
</defs>
</svg>
