<svg preserveAspectRatio="none" width="100%" height="100%" overflow="visible" style="display: block;" viewBox="0 0 15.9982 15.9982" fill="none" xmlns="http://www.w3.org/2000/svg">
<g id="Icon" clip-path="url(#clip0_0_24)">
<path id="Vector" d="M1.37451 7.76713C1.31896 7.91679 1.31896 8.08141 1.37451 8.23107C1.91558 9.54302 2.83402 10.6648 4.0134 11.4541C5.19277 12.2435 6.57996 12.6648 7.9991 12.6648C9.41824 12.6648 10.8054 12.2435 11.9848 11.4541C13.1642 10.6648 14.0826 9.54302 14.6237 8.23107C14.6792 8.08141 14.6792 7.91679 14.6237 7.76713C14.0826 6.45518 13.1642 5.33343 11.9848 4.54409C10.8054 3.75475 9.41824 3.33337 7.9991 3.33337C6.57996 3.33337 5.19277 3.75475 4.0134 4.54409C2.83402 5.33343 1.91558 6.45518 1.37451 7.76713Z" stroke="var(--stroke-0, #8F6D51)" stroke-width="0.999887" stroke-linecap="round" stroke-linejoin="round"/>
<path id="Vector_2" d="M7.9991 9.99888C9.10355 9.99888 9.99888 9.10355 9.99888 7.9991C9.99888 6.89465 9.10355 5.99933 7.9991 5.99933C6.89465 5.99933 5.99933 6.89465 5.99933 7.9991C5.99933 9.10355 6.89465 9.99888 7.9991 9.99888Z" stroke="var(--stroke-0, #8F6D51)" stroke-width="0.999887" stroke-linecap="round" stroke-linejoin="round"/>
</g>
<defs>
<clipPath id="clip0_0_24">
<rect width="15.9982" height="15.9982" fill="white"/>
</clipPath>
</defs>
</svg>
