<svg width="100%" height="100%" overflow="visible" style="display: block;" viewBox="0 0 9.43506 12.673" fill="none" xmlns="http://www.w3.org/2000/svg">
<path id="location_on" d="M4.71859 6.24357C5.02958 6.24357 5.29545 6.12546 5.5162 5.88923C5.73695 5.65301 5.84733 5.36904 5.84733 5.03732C5.84733 4.70559 5.7366 4.422 5.51514 4.18653C5.29368 3.95107 5.02746 3.83333 4.71647 3.83333C4.40548 3.83333 4.13961 3.95144 3.91886 4.18767C3.69811 4.42389 3.58773 4.70786 3.58773 5.03958C3.58773 5.37131 3.69846 5.6549 3.91992 5.89037C4.14138 6.12583 4.4076 6.24357 4.71859 6.24357ZM4.71753 12.673C3.14462 11.2192 1.96514 9.86621 1.17908 8.61408C0.393026 7.36195 0 6.21238 0 5.16537C0 3.62692 0.466547 2.38142 1.39964 1.42885C2.33272 0.476284 3.43869 0 4.71753 0C5.99637 0 7.10234 0.476284 8.03542 1.42885C8.96852 2.38142 9.43506 3.62692 9.43506 5.16537C9.43506 6.21238 9.04204 7.36195 8.25598 8.61408C7.46992 9.86621 6.29044 11.2192 4.71753 12.673Z" fill="#FDFCFA"/>
</svg>
