<svg preserveAspectRatio="none" width="100%" height="100%" overflow="visible" style="display: block;" viewBox="0 0 15.9982 15.9982" fill="none" xmlns="http://www.w3.org/2000/svg">
<g id="Icon" clip-path="url(#clip0_0_27)">
<path id="Vector" d="M8.55237 1.45317C8.37868 1.37394 8.19 1.33295 7.9991 1.33295C7.8082 1.33295 7.61952 1.37394 7.44583 1.45317L1.73314 4.05288C1.61485 4.10503 1.51428 4.19046 1.44368 4.29875C1.37308 4.40705 1.33549 4.53353 1.33549 4.66281C1.33549 4.79208 1.37308 4.91857 1.44368 5.02686C1.51428 5.13516 1.61485 5.22058 1.73314 5.27274L7.45249 7.87911C7.62618 7.95834 7.81486 7.99934 8.00577 7.99934C8.19667 7.99934 8.38535 7.95834 8.55904 7.87911L14.2784 5.27941C14.3967 5.22725 14.4972 5.14182 14.5679 5.03353C14.6385 4.92524 14.676 4.79875 14.676 4.66947C14.676 4.5402 14.6385 4.41371 14.5679 4.30542C14.4972 4.19713 14.3967 4.1117 14.2784 4.05954L8.55237 1.45317Z" stroke="var(--stroke-0, #8F6D51)" stroke-width="0.999887" stroke-linecap="round" stroke-linejoin="round"/>
<path id="Vector_2" d="M1.33318 7.9991C1.33287 8.1266 1.36912 8.25151 1.43765 8.35903C1.50618 8.46654 1.6041 8.55215 1.71981 8.6057L7.45249 11.2121C7.62528 11.2903 7.81276 11.3308 8.00243 11.3308C8.1921 11.3308 8.37959 11.2903 8.55237 11.2121L14.2717 8.61236C14.3897 8.55933 14.4897 8.47311 14.5596 8.36421C14.6294 8.25532 14.666 8.12846 14.665 7.9991" stroke="var(--stroke-0, #8F6D51)" stroke-width="0.999887" stroke-linecap="round" stroke-linejoin="round"/>
<path id="Vector_3" d="M1.33318 11.3321C1.33287 11.4596 1.36912 11.5845 1.43765 11.692C1.50618 11.7995 1.6041 11.8851 1.71981 11.9387L7.45249 14.545C7.62528 14.6233 7.81276 14.6637 8.00243 14.6637C8.1921 14.6637 8.37959 14.6233 8.55237 14.545L14.2717 11.9453C14.3897 11.8923 14.4897 11.8061 14.5596 11.6972C14.6294 11.5883 14.666 11.4614 14.665 11.3321" stroke="var(--stroke-0, #8F6D51)" stroke-width="0.999887" stroke-linecap="round" stroke-linejoin="round"/>
</g>
<defs>
<clipPath id="clip0_0_27">
<rect width="15.9982" height="15.9982" fill="white"/>
</clipPath>
</defs>
</svg>
