<svg preserveAspectRatio="none" width="100%" height="100%" overflow="visible" style="display: block;" viewBox="0 0 17 15" fill="none" xmlns="http://www.w3.org/2000/svg">
<path id="Vector" fill-rule="evenodd" clip-rule="evenodd" d="M16.8621 8.32299L8.53023 0L0.144575 8.32205C0.0994313 8.36535 0.0633991 8.41716 0.038581 8.47447C0.0137628 8.53178 0.000655455 8.59343 2.39603e-05 8.65584C-0.000607534 8.71824 0.0112495 8.78015 0.0349029 8.83794C0.0585563 8.89573 0.0935327 8.94826 0.137791 8.99245C0.18205 9.03664 0.234704 9.07161 0.292682 9.09533C0.350661 9.11904 0.412801 9.13102 0.475479 9.13057C0.538157 9.13012 0.600118 9.11724 0.657745 9.09269C0.715372 9.06815 0.767511 9.03242 0.811122 8.98759L1.89402 7.91314V14.53C1.89402 14.6546 1.94376 14.7742 2.03229 14.8623C2.12082 14.9505 2.24089 15 2.36608 15H6.61461C6.73981 15 6.85988 14.9505 6.94841 14.8623C7.03694 14.7742 7.08667 14.6546 7.08667 14.53V10.4221C7.08667 10.2974 7.13641 10.1779 7.22493 10.0897C7.31346 10.0016 7.43353 9.95206 7.55873 9.95206H9.44696C9.57216 9.95206 9.69223 10.0016 9.78076 10.0897C9.86929 10.1779 9.91902 10.2974 9.91902 10.4221V14.53C9.91902 14.6546 9.96876 14.7742 10.0573 14.8623C10.1458 14.9505 10.2659 15 10.3911 15H14.6396C14.7648 15 14.8849 14.9505 14.9734 14.8623C15.0619 14.7742 15.1117 14.6546 15.1117 14.53V7.90609L16.1936 8.98712C16.2374 9.03082 16.2894 9.0655 16.3467 9.08919C16.404 9.11288 16.4653 9.1251 16.5273 9.12517C16.5893 9.12523 16.6508 9.11314 16.7081 9.08957C16.7654 9.06601 16.8175 9.03143 16.8614 8.98783C16.9052 8.94422 16.9401 8.89243 16.9639 8.83542C16.9877 8.77841 16.9999 8.71729 17 8.65556C17.0001 8.59382 16.9879 8.53268 16.9643 8.47562C16.9406 8.41855 16.9059 8.36669 16.8621 8.32299ZM14.1676 6.96277L8.52787 1.3292L2.83814 6.97594V14.06H6.14255V10.4221C6.14255 10.0481 6.29176 9.68946 6.55734 9.42502C6.82293 9.16059 7.18314 9.01203 7.55873 9.01203H9.44696C9.82256 9.01203 10.1828 9.16059 10.4484 9.42502C10.7139 9.68946 10.8631 10.0481 10.8631 10.4221V14.06H14.1676V6.96277Z" fill="var(--fill-0, #FDFCFA)"/>
</svg>
