<svg preserveAspectRatio="none" width="100%" height="100%" overflow="visible" style="display: block;" viewBox="0 0 15 15" fill="none" xmlns="http://www.w3.org/2000/svg">
<g id="WhatsAppIcon" clip-path="url(#clip0_0_72)">
<path id="Vector" d="M10.92 8.98875C10.7344 8.89562 9.82125 8.44687 9.65125 8.38437C9.48063 8.3225 9.35688 8.29187 9.2325 8.47812C9.10938 8.66375 8.75312 9.08188 8.645 9.20563C8.53687 9.33 8.42812 9.345 8.2425 9.2525C8.05687 9.15875 7.45813 8.96313 6.74875 8.33063C6.19688 7.83813 5.82375 7.23 5.71563 7.04375C5.6075 6.85813 5.70437 6.7575 5.79687 6.665C5.88062 6.58187 5.98312 6.44812 6.07562 6.34C6.16875 6.23125 6.19938 6.15375 6.26188 6.02938C6.32375 5.90563 6.29313 5.7975 6.24625 5.70437C6.19938 5.61125 5.82813 4.69688 5.67375 4.325C5.5225 3.96312 5.36938 4.0125 5.25563 4.00625C5.1475 4.00125 5.02375 4 4.89938 4C4.77563 4 4.57437 4.04625 4.40437 4.2325C4.23437 4.41812 3.75437 4.8675 3.75437 5.78188C3.75437 6.69563 4.42 7.57875 4.5125 7.70312C4.60562 7.82687 5.8225 9.70313 7.68562 10.5075C8.12875 10.6988 8.47438 10.8131 8.74438 10.8981C9.18938 11.04 9.59438 11.02 9.91375 10.9719C10.2706 10.9188 11.0125 10.5225 11.1675 10.0888C11.3225 9.655 11.3225 9.28313 11.2756 9.20563C11.2294 9.12813 11.1063 9.08187 10.92 8.98875Z" fill="var(--fill-0, #FDFCFA)"/>
<path id="Vector_2" d="M7.5 0C3.35813 0 0 3.35813 0 7.5C0 8.8275 0.34875 10.0737 0.956875 11.1531L0.035625 14.6425C0.0138648 14.7222 0.0135734 14.8063 0.0347803 14.8862C0.0559872 14.9661 0.0979383 15.0389 0.156381 15.0974C0.214823 15.1558 0.287679 15.1978 0.367562 15.219C0.447446 15.2402 0.531516 15.2399 0.61125 15.2181L4.11375 14.2988C5.17205 14.7943 6.33192 15.0345 7.5 15C11.6419 15 15 11.6419 15 7.5C15 3.35813 11.6419 0 7.5 0ZM7.5 13.5938C6.41089 13.5945 5.34164 13.3022 4.40437 12.7475L4.1825 12.6156L1.885 13.2181L2.49812 10.9781L2.35313 10.7475C1.73615 9.77659 1.40777 8.65035 1.40625 7.5C1.40625 4.13437 4.13437 1.40625 7.5 1.40625C10.8656 1.40625 13.5938 4.13437 13.5938 7.5C13.5938 10.8656 10.8656 13.5938 7.5 13.5938Z" fill="var(--fill-0, #FDFCFA)"/>
</g>
<defs>
<clipPath id="clip0_0_72">
<rect width="15" height="15" fill="white"/>
</clipPath>
</defs>
</svg>
