<svg preserveAspectRatio="none" width="100%" height="100%" overflow="visible" style="display: block;" viewBox="0 0 15.9982 15.9982" fill="none" xmlns="http://www.w3.org/2000/svg">
<g id="Icon" clip-path="url(#clip0_0_17)">
<path id="Vector" d="M8.53237 13.0652C8.70137 13.1919 8.89807 13.2767 9.10625 13.3125C9.31444 13.3483 9.52816 13.3342 9.7298 13.2712C9.93143 13.2082 10.1152 13.0982 10.266 12.9503C10.4168 12.8023 10.5303 12.6206 10.5971 12.4202C10.6639 12.2198 10.6821 12.0064 10.6502 11.7976C10.6184 11.5888 10.5373 11.3905 10.4138 11.2191C10.2903 11.0478 10.1278 10.9082 9.93979 10.8119C9.75175 10.7157 9.54353 10.6655 9.33228 10.6655H1.33318" stroke="var(--stroke-0, #8F6D51)" stroke-width="0.999887" stroke-linecap="round" stroke-linejoin="round"/>
<path id="Vector_2" d="M11.6654 5.33273C11.8358 5.10548 12.0615 4.92557 12.321 4.81008C12.5805 4.6946 12.8653 4.64737 13.1482 4.67288C13.4311 4.69839 13.7028 4.79579 13.9375 4.95584C14.1722 5.11589 14.362 5.33328 14.4891 5.58735C14.6161 5.84142 14.6761 6.12375 14.6633 6.40753C14.6506 6.6913 14.5655 6.9671 14.4161 7.20874C14.2668 7.45038 14.0582 7.64983 13.8101 7.78816C13.5619 7.92649 13.2826 7.9991 12.9985 7.9991H1.33318" stroke="var(--stroke-0, #8F6D51)" stroke-width="0.999887" stroke-linecap="round" stroke-linejoin="round"/>
<path id="Vector_3" d="M6.5326 2.933C6.70159 2.80626 6.89829 2.72148 7.10648 2.68567C7.31467 2.64985 7.52838 2.66402 7.73002 2.72701C7.93166 2.79 8.11544 2.9 8.26622 3.04794C8.41701 3.19589 8.53048 3.37756 8.59728 3.57796C8.66408 3.77837 8.6823 3.99178 8.65044 4.20061C8.61859 4.40943 8.53756 4.6077 8.41404 4.77908C8.29053 4.95045 8.12805 5.09001 7.94001 5.18627C7.75198 5.28253 7.54375 5.33273 7.33251 5.33273H1.33318" stroke="var(--stroke-0, #8F6D51)" stroke-width="0.999887" stroke-linecap="round" stroke-linejoin="round"/>
</g>
<defs>
<clipPath id="clip0_0_17">
<rect width="15.9982" height="15.9982" fill="white"/>
</clipPath>
</defs>
</svg>
