<svg preserveAspectRatio="none" width="100%" height="100%" overflow="visible" style="display: block;" viewBox="0 0 14 14" fill="none" xmlns="http://www.w3.org/2000/svg">
<g id="picture_as_pdf">
<path id="picture_as_pdf_2" d="M4.24426 7.72841H4.87776V6.08135H5.89132C6.07195 6.08135 6.22273 6.02096 6.34365 5.90018C6.46443 5.77926 6.52482 5.62855 6.52482 5.44806V4.43429C6.52482 4.2538 6.46443 4.1031 6.34365 3.98218C6.22273 3.86139 6.07195 3.801 5.89132 3.801H4.24426V7.72841ZM4.87776 5.44806V4.43429H5.89132V5.44806H4.87776ZM7.38006 7.72841H8.96371C9.14433 7.72841 9.29511 7.66802 9.41603 7.54724C9.53681 7.42631 9.59721 7.27561 9.59721 7.09512V4.43429C9.59721 4.2538 9.53681 4.1031 9.41603 3.98218C9.29511 3.86139 9.14433 3.801 8.96371 3.801H7.38006V7.72841ZM8.01356 7.09512V4.43429H8.96371V7.09512H8.01356ZM10.6108 7.72841H11.2443V6.08135H12.3846V5.44806H11.2443V4.43429H12.3846V3.801H10.6108V7.72841ZM3.801 11.5294C3.4219 11.5294 3.10539 11.4025 2.85147 11.1485C2.59755 10.8946 2.47059 10.5781 2.47059 10.199V1.33041C2.47059 0.951314 2.59755 0.634804 2.85147 0.380882C3.10539 0.126961 3.4219 0 3.801 0H12.6696C13.0487 0 13.3652 0.126961 13.6191 0.380882C13.873 0.634804 14 0.951314 14 1.33041V10.199C14 10.5781 13.873 10.8946 13.6191 11.1485C13.3652 11.4025 13.0487 11.5294 12.6696 11.5294H3.801ZM3.801 10.7059H12.6696C12.7964 10.7059 12.9126 10.6531 13.0181 10.5476C13.1237 10.442 13.1765 10.3258 13.1765 10.199V1.33041C13.1765 1.20359 13.1237 1.0874 13.0181 0.981853C12.9126 0.876304 12.7964 0.823529 12.6696 0.823529H3.801C3.67418 0.823529 3.55799 0.876304 3.45244 0.981853C3.34689 1.0874 3.29412 1.20359 3.29412 1.33041V10.199C3.29412 10.3258 3.34689 10.442 3.45244 10.5476C3.55799 10.6531 3.67418 10.7059 3.801 10.7059ZM1.33041 14C0.951314 14 0.634804 13.873 0.380882 13.6191C0.126961 13.3652 0 13.0488 0 12.6698V2.97747H0.823529V12.6698C0.823529 12.7965 0.876304 12.9126 0.981853 13.0181C1.0874 13.1237 1.20359 13.1765 1.33041 13.1765H11.0225V14H1.33041Z" fill="#FDFCFA" fill-opacity="0.8"/>
</g>
</svg>
